<?xml version="1.0" standalone="no"?>
<svg xmlns:xlink="http://www.w3.org/1999/xlink" id="wave" style="transform:rotate(180deg); transition: 0.3s" viewBox="0 0 1440 280" version="1.1" xmlns="http://www.w3.org/2000/svg"><defs><linearGradient id="sw-gradient-0" x1="0" x2="0" y1="1" y2="0"><stop stop-color="rgba(217, 173, 255, 1)" offset="0%"/><stop stop-color="rgba(217, 173, 255, 1)" offset="100%"/></linearGradient></defs><path style="transform:translate(0, 0px); opacity:1" fill="url(#sw-gradient-0)" d="M0,112L60,93.3C120,75,240,37,360,46.7C480,56,600,112,720,130.7C840,149,960,131,1080,102.7C1200,75,1320,37,1440,51.3C1560,65,1680,131,1800,130.7C1920,131,2040,65,2160,56C2280,47,2400,93,2520,116.7C2640,140,2760,140,2880,144.7C3000,149,3120,159,3240,140C3360,121,3480,75,3600,51.3C3720,28,3840,28,3960,51.3C4080,75,4200,121,4320,158.7C4440,196,4560,224,4680,205.3C4800,187,4920,121,5040,107.3C5160,93,5280,131,5400,158.7C5520,187,5640,205,5760,205.3C5880,205,6000,187,6120,168C6240,149,6360,131,6480,126C6600,121,6720,131,6840,144.7C6960,159,7080,177,7200,196C7320,215,7440,233,7560,214.7C7680,196,7800,140,7920,102.7C8040,65,8160,47,8280,70C8400,93,8520,159,8580,191.3L8640,224L8640,280L8580,280C8520,280,8400,280,8280,280C8160,280,8040,280,7920,280C7800,280,7680,280,7560,280C7440,280,7320,280,7200,280C7080,280,6960,280,6840,280C6720,280,6600,280,6480,280C6360,280,6240,280,6120,280C6000,280,5880,280,5760,280C5640,280,5520,280,5400,280C5280,280,5160,280,5040,280C4920,280,4800,280,4680,280C4560,280,4440,280,4320,280C4200,280,4080,280,3960,280C3840,280,3720,280,3600,280C3480,280,3360,280,3240,280C3120,280,3000,280,2880,280C2760,280,2640,280,2520,280C2400,280,2280,280,2160,280C2040,280,1920,280,1800,280C1680,280,1560,280,1440,280C1320,280,1200,280,1080,280C960,280,840,280,720,280C600,280,480,280,360,280C240,280,120,280,60,280L0,280Z"/><defs><linearGradient id="sw-gradient-1" x1="0" x2="0" y1="1" y2="0"><stop stop-color="rgba(120, 201, 255, 1)" offset="0%"/><stop stop-color="rgba(120, 201, 255, 1)" offset="100%"/></linearGradient></defs><path style="transform:translate(0, 50px); opacity:0.9" fill="url(#sw-gradient-1)" d="M0,84L60,88.7C120,93,240,103,360,116.7C480,131,600,149,720,144.7C840,140,960,112,1080,88.7C1200,65,1320,47,1440,65.3C1560,84,1680,140,1800,140C1920,140,2040,84,2160,93.3C2280,103,2400,177,2520,200.7C2640,224,2760,196,2880,163.3C3000,131,3120,93,3240,79.3C3360,65,3480,75,3600,102.7C3720,131,3840,177,3960,168C4080,159,4200,93,4320,65.3C4440,37,4560,47,4680,42C4800,37,4920,19,5040,32.7C5160,47,5280,93,5400,102.7C5520,112,5640,84,5760,88.7C5880,93,6000,131,6120,144.7C6240,159,6360,149,6480,140C6600,131,6720,121,6840,102.7C6960,84,7080,56,7200,60.7C7320,65,7440,103,7560,130.7C7680,159,7800,177,7920,182C8040,187,8160,177,8280,177.3C8400,177,8520,187,8580,191.3L8640,196L8640,280L8580,280C8520,280,8400,280,8280,280C8160,280,8040,280,7920,280C7800,280,7680,280,7560,280C7440,280,7320,280,7200,280C7080,280,6960,280,6840,280C6720,280,6600,280,6480,280C6360,280,6240,280,6120,280C6000,280,5880,280,5760,280C5640,280,5520,280,5400,280C5280,280,5160,280,5040,280C4920,280,4800,280,4680,280C4560,280,4440,280,4320,280C4200,280,4080,280,3960,280C3840,280,3720,280,3600,280C3480,280,3360,280,3240,280C3120,280,3000,280,2880,280C2760,280,2640,280,2520,280C2400,280,2280,280,2160,280C2040,280,1920,280,1800,280C1680,280,1560,280,1440,280C1320,280,1200,280,1080,280C960,280,840,280,720,280C600,280,480,280,360,280C240,280,120,280,60,280L0,280Z"/><defs><linearGradient id="sw-gradient-2" x1="0" x2="0" y1="1" y2="0"><stop stop-color="rgba(184, 112, 255, 1)" offset="0%"/><stop stop-color="rgba(184, 112, 255, 1)" offset="100%"/></linearGradient></defs><path style="transform:translate(0, 100px); opacity:0.8" fill="url(#sw-gradient-2)" d="M0,84L60,79.3C120,75,240,65,360,51.3C480,37,600,19,720,46.7C840,75,960,149,1080,158.7C1200,168,1320,112,1440,98C1560,84,1680,112,1800,140C1920,168,2040,196,2160,172.7C2280,149,2400,75,2520,56C2640,37,2760,75,2880,102.7C3000,131,3120,149,3240,144.7C3360,140,3480,112,3600,116.7C3720,121,3840,159,3960,154C4080,149,4200,103,4320,79.3C4440,56,4560,56,4680,60.7C4800,65,4920,75,5040,102.7C5160,131,5280,177,5400,172.7C5520,168,5640,112,5760,107.3C5880,103,6000,149,6120,158.7C6240,168,6360,140,6480,112C6600,84,6720,56,6840,46.7C6960,37,7080,47,7200,60.7C7320,75,7440,93,7560,121.3C7680,149,7800,187,7920,200.7C8040,215,8160,205,8280,205.3C8400,205,8520,215,8580,219.3L8640,224L8640,280L8580,280C8520,280,8400,280,8280,280C8160,280,8040,280,7920,280C7800,280,7680,280,7560,280C7440,280,7320,280,7200,280C7080,280,6960,280,6840,280C6720,280,6600,280,6480,280C6360,280,6240,280,6120,280C6000,280,5880,280,5760,280C5640,280,5520,280,5400,280C5280,280,5160,280,5040,280C4920,280,4800,280,4680,280C4560,280,4440,280,4320,280C4200,280,4080,280,3960,280C3840,280,3720,280,3600,280C3480,280,3360,280,3240,280C3120,280,3000,280,2880,280C2760,280,2640,280,2520,280C2400,280,2280,280,2160,280C2040,280,1920,280,1800,280C1680,280,1560,280,1440,280C1320,280,1200,280,1080,280C960,280,840,280,720,280C600,280,480,280,360,280C240,280,120,280,60,280L0,280Z"/></svg>